<svg width="16" height="16" viewBox="0 0 16 16" fill="#BDBAB5" xmlns="http://www.w3.org/2000/svg">
<path d="M6.906 0.663773C7.21627 0.415221 7.60195 0.279785 7.9995 0.279785C8.39705 0.279785 8.78273 0.415221 9.093 0.663773L14.343 4.86377C14.758 5.19577 15 5.69877 15 6.23077V13.2498C15 13.7139 14.8156 14.159 14.4874 14.4872C14.1592 14.8154 13.7141 14.9998 13.25 14.9998H9.75C9.55109 14.9998 9.36032 14.9208 9.21967 14.7801C9.07902 14.6395 9 14.4487 9 14.2498V8.99977H7V14.2498C7 14.4487 6.92098 14.6395 6.78033 14.7801C6.63968 14.9208 6.44891 14.9998 6.25 14.9998H2.75C2.28587 14.9998 1.84075 14.8154 1.51256 14.4872C1.18437 14.159 1 13.7139 1 13.2498V6.22977C1 5.69877 1.242 5.19577 1.657 4.86377L6.906 0.663773ZM8.156 1.83477C8.1117 1.7994 8.05669 1.78013 8 1.78013C7.94331 1.78013 7.8883 1.7994 7.844 1.83477L2.594 6.03477C2.56459 6.05826 2.54086 6.08808 2.52458 6.12202C2.50831 6.15596 2.4999 6.19313 2.5 6.23077V13.2498C2.5 13.3878 2.612 13.4998 2.75 13.4998H5.5V8.24977C5.5 8.05086 5.57902 7.86009 5.71967 7.71944C5.86032 7.57879 6.05109 7.49977 6.25 7.49977H9.75C9.94891 7.49977 10.1397 7.57879 10.2803 7.71944C10.421 7.86009 10.5 8.05086 10.5 8.24977V13.4998H13.25C13.3163 13.4998 13.3799 13.4734 13.4268 13.4265C13.4737 13.3797 13.5 13.3161 13.5 13.2498V6.22977C13.4999 6.1923 13.4915 6.15532 13.4752 6.12157C13.4589 6.08782 13.4353 6.05815 13.406 6.03477L8.156 1.83477Z" fill="black"/>
</svg>
