<?xml version="1.0" standalone="no"?>
<!DOCTYPE svg PUBLIC "-//W3C//DTD SVG 20010904//EN"
 "http://www.w3.org/TR/2001/REC-SVG-20010904/DTD/svg10.dtd">
<svg version="1.0" xmlns="http://www.w3.org/2000/svg"
 width="512.000000pt" height="512.000000pt" viewBox="0 0 512.000000 512.000000"
 preserveAspectRatio="xMidYMid meet">

<g transform="translate(0.000000,512.000000) scale(0.100000,-0.100000)"
fill="#BDBAB5" stroke="none">
<path d="M3498 5110 c-26 -5 -80 -23 -120 -41 -72 -32 -92 -51 -1103 -1059
-566 -564 -1051 -1043 -1077 -1063 -183 -145 -225 -460 -87 -666 23 -34 60
-76 82 -94 23 -18 505 -494 1072 -1059 694 -692 1046 -1036 1080 -1056 195
-113 446 -83 600 71 163 164 192 417 72 614 -26 41 -290 312 -911 933 l-876
875 884 885 c689 690 890 896 909 935 40 81 58 154 58 240 0 310 -273 537
-583 485z"/>
</g>
</svg>
