<?xml version="1.0" standalone="no"?>
<!DOCTYPE svg PUBLIC "-//W3C//DTD SVG 20010904//EN"
 "http://www.w3.org/TR/2001/REC-SVG-20010904/DTD/svg10.dtd">
<svg version="1.0" xmlns="http://www.w3.org/2000/svg"
 width="512.000000pt" height="512.000000pt" viewBox="0 0 512.000000 512.000000"
 preserveAspectRatio="xMidYMid meet">

<g transform="translate(0.000000,512.000000) scale(0.100000,-0.100000)"
fill="#FF8A00" stroke="none">
<path d="M1777 5105 c-212 -59 -317 -298 -219 -497 38 -77 92 -130 171 -167
50 -23 70 -26 189 -29 l132 -4 0 -53 c0 -61 7 -56 -109 -80 -388 -81 -765
-289 -1061 -585 -340 -339 -540 -736 -616 -1223 -23 -145 -23 -468 0 -612 59
-377 198 -704 429 -1010 78 -103 289 -314 392 -392 275 -208 573 -345 888
-407 881 -176 1734 181 2247 939 143 211 256 487 309 755 106 537 10 1080
-274 1549 l-57 94 58 58 58 59 77 -75 c81 -79 115 -99 191 -110 118 -18 248
69 283 188 18 64 15 124 -11 187 -10 22 -138 158 -347 369 -367 368 -383 381
-492 381 -108 0 -196 -57 -243 -159 -21 -45 -24 -64 -20 -120 6 -85 25 -119
112 -209 l70 -73 -47 -46 -47 -47 -24 19 c-347 277 -599 397 -1033 491 -21 4
-23 10 -23 59 l0 55 118 0 c169 0 241 27 328 122 55 60 86 143 86 233 0 139
-73 255 -200 317 l-67 33 -600 2 c-472 1 -610 -1 -648 -12z m877 -1510 c258
-45 505 -162 703 -333 242 -210 404 -487 474 -813 33 -149 33 -419 0 -568 -55
-258 -161 -473 -328 -666 -458 -530 -1236 -656 -1838 -297 -567 338 -835 1019
-650 1654 98 339 330 644 627 826 308 189 664 258 1012 197z"/>
<path d="M3220 3021 c-149 -48 -447 -229 -745 -451 -206 -154 -283 -225 -324
-300 -34 -62 -36 -70 -36 -160 0 -88 3 -101 33 -162 37 -77 90 -128 172 -167
46 -22 69 -26 140 -26 145 0 216 45 364 230 254 317 493 697 555 883 25 73 27
120 5 150 -19 28 -84 29 -164 3z"/>
</g>
</svg>
