<?xml version="1.0" standalone="no"?>
<!DOCTYPE svg PUBLIC "-//W3C//DTD SVG 20010904//EN"
 "http://www.w3.org/TR/2001/REC-SVG-20010904/DTD/svg10.dtd">
<svg version="1.0" xmlns="http://www.w3.org/2000/svg"
 width="512.000000pt" height="512.000000pt" viewBox="0 0 512.000000 512.000000"
 preserveAspectRatio="xMidYMid meet">

<g transform="translate(0.000000,512.000000) scale(0.100000,-0.100000)"
fill="#FF8A00" stroke="none">
<path d="M2321 5110 c-497 -48 -990 -251 -1376 -565 -114 -92 -294 -274 -384
-387 -229 -287 -417 -675 -495 -1023 -49 -218 -60 -325 -60 -575 0 -250 11
-357 60 -575 79 -355 272 -749 509 -1040 92 -114 274 -294 387 -384 287 -229
675 -417 1023 -495 218 -49 325 -60 575 -60 250 0 357 11 575 60 261 58 603
204 828 353 389 259 688 599 893 1016 125 255 196 484 241 775 24 161 24 539
0 700 -45 291 -116 520 -241 775 -134 272 -283 480 -498 692 -211 209 -404
346 -673 478 -252 124 -486 197 -765 240 -126 19 -468 27 -599 15z m445 -411
c499 -48 944 -259 1305 -618 258 -257 427 -529 534 -861 163 -506 133 -1053
-85 -1541 -174 -390 -500 -753 -879 -976 -313 -185 -711 -293 -1081 -293 -370
0 -768 108 -1081 293 -317 187 -617 492 -794 806 -365 652 -365 1450 0 2102
182 324 500 642 824 824 380 213 825 306 1257 264z"/>
<path d="M2162 3875 c-73 -21 -101 -37 -166 -95 -68 -63 -112 -148 -126 -245
-13 -94 -13 -1856 0 -1950 15 -101 58 -182 132 -249 84 -77 146 -100 268 -100
84 -1 103 3 160 28 60 27 103 67 578 540 559 557 559 557 583 694 14 79 0 165
-40 247 -26 52 -103 132 -543 571 -475 472 -518 513 -577 538 -78 35 -190 43
-269 21z m578 -860 l455 -455 -455 -455 c-250 -250 -458 -455 -462 -455 -5 0
-8 410 -8 910 0 501 3 910 8 910 4 0 212 -205 462 -455z"/>
</g>
</svg>
